<svg width="72" height="67" viewBox="0 0 72 67" fill="none" xmlns="http://www.w3.org/2000/svg">
<g filter="url(#filter0_d)">
<path d="M30.6667 46.0935V38.7335L25.1733 42.7868C26.72 44.2268 28.5867 45.3468 30.6667 46.0935Z" fill="#41479B"/>
<path d="M41.333 46.0942C43.413 45.3475 45.2797 44.2275 46.8263 42.7875L41.333 38.6809V46.0942Z" fill="#41479B"/>
<path d="M20.9067 36.334C21.0667 36.8674 21.2801 37.3474 21.5467 37.8807L23.6267 36.334H20.9067Z" fill="#41479B"/>
<path d="M48.3735 36.3338L50.4535 37.8805C50.6669 37.4005 50.8802 36.8671 51.0935 36.3338H48.3735Z" fill="#41479B"/>
<path d="M31.467 34.2002H20.3203C20.4803 34.9469 20.6936 35.6402 20.907 36.3336H23.627L21.547 37.8802C21.9736 38.7869 22.4536 39.5869 23.0403 40.3869L28.5336 36.3336H30.667V37.4002L24.427 41.9869L25.1736 42.7336L30.667 38.7336V46.0936C31.3603 46.3602 32.0536 46.5202 32.8003 46.6802V34.2002H31.467Z" fill="#F5F5F5"/>
<path d="M51.6802 34.2H39.2002V46.68C39.9469 46.52 40.6402 46.3067 41.3335 46.0933V38.7333L46.8269 42.7333C47.5735 42.04 48.2135 41.2933 48.8535 40.4933L43.1469 36.3333H46.7735L50.0269 38.7333C50.1869 38.4667 50.3469 38.1467 50.4535 37.88L48.3735 36.3333H51.0935C51.3069 35.64 51.5202 34.9467 51.6802 34.2Z" fill="#F5F5F5"/>
<path d="M23.04 40.3865C23.4667 40.9731 23.8934 41.5065 24.3734 42.0398L30.6667 37.4531V36.3865H28.5334L23.04 40.3865Z" fill="#FF4B55"/>
<path d="M43.1997 36.3338L48.9064 40.4938C49.1197 40.2271 49.2797 39.9605 49.493 39.6938C49.5464 39.6405 49.5464 39.5871 49.5997 39.5871C49.7597 39.3205 49.973 39.0005 50.133 38.7338L46.773 36.3338H43.1997Z" fill="#FF4B55"/>
<path d="M41.3325 15.9073V23.2673L46.8259 19.2139C45.2792 17.7739 43.4125 16.6539 41.3325 15.9073Z" fill="#41479B"/>
<path d="M30.6662 15.9073C28.5862 16.6539 26.7195 17.7739 25.1729 19.2139L30.6662 23.3206V15.9073Z" fill="#41479B"/>
<path d="M51.093 25.6675C50.933 25.1342 50.7197 24.6542 50.453 24.1208L48.373 25.6675H51.093Z" fill="#41479B"/>
<path d="M23.6263 25.6675L21.5462 24.1208C21.3329 24.6542 21.1196 25.1342 20.9062 25.6675H23.6263Z" fill="#41479B"/>
<path d="M40.5335 27.7998H51.6269C51.4669 27.0532 51.2535 26.3598 51.0402 25.6665H48.3202L50.4002 24.1198C49.9735 23.2132 49.4935 22.4132 48.9069 21.6132L43.4669 25.6665H41.3335V24.5998L47.5735 20.0132L46.8269 19.2665L41.3335 23.2665V15.9065C40.6402 15.6398 39.9469 15.4798 39.2002 15.3198V27.7998H40.5335Z" fill="#F5F5F5"/>
<path d="M20.3203 27.7998H32.8003V15.3198C32.0536 15.4798 31.3603 15.6931 30.667 15.9065V23.2665L25.1736 19.2665C24.427 19.9598 23.787 20.7065 23.147 21.5065L28.8536 25.6665H25.227L21.9736 23.2665C21.8136 23.5331 21.6536 23.8531 21.547 24.1198L23.627 25.6665H20.907C20.6936 26.3598 20.4803 27.0531 20.3203 27.7998Z" fill="#F5F5F5"/>
<path d="M48.9597 21.6134C48.533 21.0267 48.1063 20.4934 47.6263 19.9601L41.333 24.5467V25.6134H43.4663L48.9597 21.6134Z" fill="#FF4B55"/>
<path d="M28.7999 25.6668L23.1466 21.5068C22.9333 21.7734 22.7733 22.0401 22.5599 22.3068C22.5066 22.3601 22.5066 22.4134 22.4533 22.4134C22.2933 22.6801 22.0799 23.0001 21.9199 23.2668L25.1733 25.6668H28.7999Z" fill="#FF4B55"/>
<path d="M51.68 27.8H39.2V15.32C38.1867 15.1067 37.12 15 36 15C34.88 15 33.8133 15.1067 32.8 15.32V27.8H20.32C20.1067 28.8133 20 29.88 20 31C20 32.12 20.1067 33.1867 20.32 34.2H32.8V46.68C33.8133 46.8933 34.88 47 36 47C37.12 47 38.1867 46.8933 39.2 46.68V34.2H51.68C51.8933 33.1867 52 32.12 52 31C52 29.88 51.8933 28.8133 51.68 27.8Z" fill="#FF4B55"/>
</g>
<defs>
<filter id="filter0_d" x="0" y="0" width="72" height="72" filterUnits="userSpaceOnUse" color-interpolation-filters="sRGB">
<feFlood flood-opacity="0" result="BackgroundImageFix"/>
<feColorMatrix in="SourceAlpha" type="matrix" values="0 0 0 0 0 0 0 0 0 0 0 0 0 0 0 0 0 0 127 0" result="hardAlpha"/>
<feOffset dy="5"/>
<feGaussianBlur stdDeviation="10"/>
<feColorMatrix type="matrix" values="0 0 0 0 0.4 0 0 0 0 0.4 0 0 0 0 0.4 0 0 0 0.2 0"/>
<feBlend mode="normal" in2="BackgroundImageFix" result="effect1_dropShadow"/>
<feBlend mode="normal" in="SourceGraphic" in2="effect1_dropShadow" result="shape"/>
</filter>
</defs>
</svg>
